REM DIRINDEX 1\2\6,1\2\7,1\2\8,1\3\9,1\3\10,1\3\11,1\4\12,1\4\13,1\4\14,1\5\15,1\5\16,1\5\17,1\5\18
REM DIRNAME folder01,folder02,folder03,folder04,folder05,folder06,folder07,folder08,folder09,folder10,folder11,folder12,folder13,folder14,folder15,folder16,folder17,folder18
TITLE ""
FILE "2Q_j_1404-1417.mp3" MP3
  TRACK 01 AUDIO
    TITLE "6:cjc019_0674"
    INDEX 01 00:00:00
  TRACK 02 AUDIO
    TITLE "0:"
    INDEX 01 00:01:28
  TRACK 03 AUDIO
    TITLE "7:cjc019_0675"
    INDEX 01 00:02:12
  TRACK 04 AUDIO
    TITLE "0:"
    INDEX 01 00:03:51
  TRACK 05 AUDIO
    TITLE "8:cjc019_0676"
    INDEX 01 00:04:29
  TRACK 06 AUDIO
    TITLE "0:"
    INDEX 01 00:07:45
  TRACK 07 AUDIO
    TITLE "6:cjc019_0677"
    INDEX 01 00:08:24
  TRACK 08 AUDIO
    TITLE "0:"
    INDEX 01 00:09:45
  TRACK 09 AUDIO
    TITLE "7:cjc019_0678"
    INDEX 01 00:10:19
  TRACK 10 AUDIO
    TITLE "0:"
    INDEX 01 00:13:12
  TRACK 11 AUDIO
    TITLE "8:cjc019_0679"
    INDEX 01 00:13:69
  TRACK 12 AUDIO
    TITLE "0:"
    INDEX 01 00:18:50
  TRACK 13 AUDIO
    TITLE "6:cjc019_0680"
    INDEX 01 00:19:30
  TRACK 14 AUDIO
    TITLE "0:"
    INDEX 01 00:21:19
  TRACK 15 AUDIO
    TITLE "7:cjc019_0681"
    INDEX 01 00:21:68
  TRACK 16 AUDIO
    TITLE "0:"
    INDEX 01 00:24:06
  TRACK 17 AUDIO
    TITLE "8:cjc019_0682"
    INDEX 01 00:24:63
  TRACK 18 AUDIO
    TITLE "0:"
    INDEX 01 00:26:60
  TRACK 19 AUDIO
    TITLE "6:cjc019_0683"
    INDEX 01 00:27:38
  TRACK 20 AUDIO
    TITLE "0:"
    INDEX 01 00:29:15
  TRACK 21 AUDIO
    TITLE "7:cjc019_0684"
    INDEX 01 00:29:68
  TRACK 22 AUDIO
    TITLE "0:"
    INDEX 01 00:31:69
  TRACK 23 AUDIO
    TITLE "8:cjc019_0685"
    INDEX 01 00:32:43
  TRACK 24 AUDIO
    TITLE "0:"
    INDEX 01 00:35:12
  TRACK 25 AUDIO
    TITLE "6:cjc019_0686"
    INDEX 01 00:35:63
  TRACK 26 AUDIO
    TITLE "0:"
    INDEX 01 00:37:10
  TRACK 27 AUDIO
    TITLE "7:cjc019_0687"
    INDEX 01 00:37:67
  TRACK 28 AUDIO
    TITLE "0:"
    INDEX 01 00:40:03
  TRACK 29 AUDIO
    TITLE "8:cjc019_0688"
    INDEX 01 00:40:56
  TRACK 30 AUDIO
    TITLE "0:"
    INDEX 01 00:44:18
  TRACK 31 AUDIO
    TITLE "6:cjc019_0689"
    INDEX 01 00:44:65
  TRACK 32 AUDIO
    TITLE "0:"
    INDEX 01 00:46:21
  TRACK 33 AUDIO
    TITLE "7:cjc019_0690"
    INDEX 01 00:47:01
  TRACK 34 AUDIO
    TITLE "0:"
    INDEX 01 00:49:39
  TRACK 35 AUDIO
    TITLE "8:cjc019_0691"
    INDEX 01 00:50:15
  TRACK 36 AUDIO
    TITLE "0:"
    INDEX 01 00:54:27
  TRACK 37 AUDIO
    TITLE "6:cjc019_0692"
    INDEX 01 00:55:06
  TRACK 38 AUDIO
    TITLE "0:"
    INDEX 01 00:56:35
  TRACK 39 AUDIO
    TITLE "7:cjc019_0693"
    INDEX 01 00:57:15
  TRACK 40 AUDIO
    TITLE "0:"
    INDEX 01 00:59:49
  TRACK 41 AUDIO
    TITLE "8:cjc019_0694"
    INDEX 01 01:00:25
  TRACK 42 AUDIO
    TITLE "0:"
    INDEX 01 01:04:21
  TRACK 43 AUDIO
    TITLE "6:cjc019_0695"
    INDEX 01 01:05:01
  TRACK 44 AUDIO
    TITLE "0:"
    INDEX 01 01:06:24
  TRACK 45 AUDIO
    TITLE "7:cjc019_0696"
    INDEX 01 01:07:02
  TRACK 46 AUDIO
    TITLE "0:"
    INDEX 01 01:08:48
  TRACK 47 AUDIO
    TITLE "8:cjc019_0697"
    INDEX 01 01:09:32
  TRACK 48 AUDIO
    TITLE "0:"
    INDEX 01 01:12:68
  TRACK 49 AUDIO
    TITLE "6:cjc019_0698"
    INDEX 01 01:13:53
  TRACK 50 AUDIO
    TITLE "0:"
    INDEX 01 01:15:03
  TRACK 51 AUDIO
    TITLE "7:cjc019_0699"
    INDEX 01 01:15:60
  TRACK 52 AUDIO
    TITLE "0:"
    INDEX 01 01:17:06
  TRACK 53 AUDIO
    TITLE "8:cjc019_0700"
    INDEX 01 01:17:63
  TRACK 54 AUDIO
    TITLE "0:"
    INDEX 01 01:21:63
  TRACK 55 AUDIO
    TITLE "6:cjc019_0701"
    INDEX 01 01:22:46
  TRACK 56 AUDIO
    TITLE "0:"
    INDEX 01 01:24:14
  TRACK 57 AUDIO
    TITLE "7:cjc019_0702"
    INDEX 01 01:25:00
  TRACK 58 AUDIO
    TITLE "0:"
    INDEX 01 01:27:59
  TRACK 59 AUDIO
    TITLE "8:cjc019_0703"
    INDEX 01 01:28:35
  TRACK 60 AUDIO
    TITLE "0:"
    INDEX 01 01:33:72
  TRACK 61 AUDIO
    TITLE "6:cjc019_0704"
    INDEX 01 01:34:57
  TRACK 62 AUDIO
    TITLE "0:"
    INDEX 01 01:36:15
  TRACK 63 AUDIO
    TITLE "7:cjc019_0705"
    INDEX 01 01:36:74
  TRACK 64 AUDIO
    TITLE "0:"
    INDEX 01 01:38:63
  TRACK 65 AUDIO
    TITLE "8:cjc019_0706"
    INDEX 01 01:39:45
  TRACK 66 AUDIO
    TITLE "0:"
    INDEX 01 01:43:33
  TRACK 67 AUDIO
    TITLE "6:cjc019_0707"
    INDEX 01 01:44:11
  TRACK 68 AUDIO
    TITLE "0:"
    INDEX 01 01:45:71
  TRACK 69 AUDIO
    TITLE "7:cjc019_0708"
    INDEX 01 01:46:55
  TRACK 70 AUDIO
    TITLE "0:"
    INDEX 01 01:48:20
  TRACK 71 AUDIO
    TITLE "8:cjc019_0709"
    INDEX 01 01:48:65
  TRACK 72 AUDIO
    TITLE "0:"
    INDEX 01 01:52:42
  TRACK 73 AUDIO
    TITLE "6:cjc019_0710"
    INDEX 01 01:53:23
  TRACK 74 AUDIO
    TITLE "0:"
    INDEX 01 01:54:68
  TRACK 75 AUDIO
    TITLE "7:cjc019_0711"
    INDEX 01 01:55:54
  TRACK 76 AUDIO
    TITLE "0:"
    INDEX 01 01:58:21
  TRACK 77 AUDIO
    TITLE "8:cjc019_0712"
    INDEX 01 01:59:01
  TRACK 78 AUDIO
    TITLE "0:"
    INDEX 01 02:02:09
  TRACK 79 AUDIO
    TITLE "6:cjc019_0713"
    INDEX 01 02:02:71
  TRACK 80 AUDIO
    TITLE "0:"
    INDEX 01 02:04:47
  TRACK 81 AUDIO
    TITLE "7:cjc019_0714"
    INDEX 01 02:05:31
  TRACK 82 AUDIO
    TITLE "0:"
    INDEX 01 02:07:06
  TRACK 83 AUDIO
    TITLE "8:cjc019_0715"
    INDEX 01 02:07:61
  TRACK 84 AUDIO
    TITLE "0:"
    INDEX 01 02:11:51
